<?xml version="1.0" encoding="utf-8"?>
<svg width="330px" height="339px" viewBox="0 0 330 339" version="1.1" xmlns:xlink="http://www.w3.org/1999/xlink" xmlns="http://www.w3.org/2000/svg">
  <desc>Created with Lunacy</desc>
  <g id="upgrade-account">
    <g id="graphic-/-help-fellow-designers-(dark)">
      <path d="M55.1631 110.395C85.6289 110.395 110.326 85.6824 110.326 55.1976C110.326 24.7128 85.6289 0 55.1631 0C24.6974 0 0 24.7128 0 55.1976C0 85.6824 24.6974 110.395 55.1631 110.395Z" transform="translate(23.20605 0)" id="Oval" fill="#0071BB" stroke="none" />
      <path d="M144.448 289.076C224.224 289.076 288.895 224.364 288.895 144.538C288.895 64.7119 224.224 0 144.448 0C64.6714 0 0 64.7119 0 144.538C0 224.364 64.6714 289.076 144.448 289.076Z" transform="translate(32.87378 7.397217)" id="Oval" fill="#00275D" stroke="none" />
      <path d="M158.665 17.0714C246.293 17.0714 317.33 13.2498 317.33 8.53571C317.33 3.82157 246.293 0 158.665 0C71.0368 0 0 3.82157 0 8.53571C0 13.2498 71.0368 17.0714 158.665 17.0714Z" transform="translate(11.83203 287.369)" id="Oval" fill="#3F3D56" stroke="none" />
      <path d="M118.857 11.7734C184.499 11.7734 237.713 9.13784 237.713 5.8867C237.713 2.63557 184.499 0 118.857 0C53.2139 0 0 2.63557 0 5.8867C0 9.13784 53.2139 11.7734 118.857 11.7734Z" transform="translate(19.79395 290.3124)" id="Oval" fill="#000000" fill-opacity="0.1" stroke="none" />
      <path d="M101.252 10.2429C157.172 10.2429 202.504 7.94992 202.504 5.12143C202.504 2.29294 157.172 0 101.252 0C45.332 0 0 2.29294 0 5.12143C0 7.94992 45.332 10.2429 101.252 10.2429Z" transform="translate(126.7383 328.3406)" id="Oval" fill="#3F3D56" stroke="none" />
      <path d="M48.8523 4.94202C75.8327 4.94202 97.7047 3.83571 97.7047 2.47101C97.7047 1.10631 75.8327 0 48.8523 0C21.8719 0 0 1.10631 0 2.47101C0 3.83571 21.8719 4.94202 48.8523 4.94202Z" transform="translate(0 313.9194)" id="Oval" fill="#3F3D56" stroke="none" />
      <path d="M18.1981 36.419C28.2487 36.419 36.3963 28.2664 36.3963 18.2095C36.3963 8.15268 28.2487 0 18.1981 0C8.14758 0 0 8.15268 0 18.2095C0 28.2664 8.14758 36.419 18.1981 36.419Z" transform="translate(242.7212 36.98816)" id="Oval" fill="#2F2E41" stroke="none" />
      <path d="M15.284 0L5.04756 27.8833C5.04756 27.8833 -3.48282 34.7119 1.63541 36.9881C6.75364 39.2643 16.9901 34.7119 16.9901 34.7119L24.9518 14.2262L23.8144 0L15.284 0Z" transform="translate(257.8623 254.6488)" id="Path" fill="#2F2E41" stroke="none" />
      <path d="M15.284 0L5.04756 27.8833C5.04756 27.8833 -3.48282 34.7119 1.63541 36.9881C6.75364 39.2643 16.9901 34.7119 16.9901 34.7119L24.9518 14.2262L23.8144 0L15.284 0Z" transform="translate(257.8623 254.6488)" id="Path" fill="#000000" fill-opacity="0.1" stroke="none" />
      <path d="M3.86188 0L12.3923 1.1381C12.3923 1.1381 16.3731 32.4357 14.667 34.7119C12.961 36.9881 4.43057 46.0928 1.01842 43.8167C-2.39373 41.5405 3.86188 0 3.86188 0Z" transform="translate(270.1372 89.34045)" id="Path" fill="#0071BB" stroke="none" />
      <path d="M17.7558 0C17.7558 0 5.81329 5.12143 3.53853 5.69047C1.26376 6.25952 -2.14839 11.95 1.83245 13.0881C5.81329 14.2262 21.168 2.84524 21.168 2.84524L17.7558 0Z" transform="translate(174.6362 146.5298)" id="Path" fill="#A0616A" stroke="none" />
      <path d="M0 3.84084L6.25561 27.1718C6.25561 27.1718 6.8243 35.7075 9.66776 36.2766C12.5112 36.8456 21.0416 33.4313 21.0416 32.2932C21.0416 31.1551 17.6294 22.0504 17.6294 22.0504C17.6294 22.0504 17.6294 15.2218 14.2173 12.3766C10.8051 9.53132 7.73107 0 7.73107 0L0 3.84084Z" transform="translate(277.1268 262.1887)" id="Path" fill="#2F2E41" stroke="none" />
      <path d="M24.4537 52.9214C25.6025 55.6016 25.4603 75.046 24.2035 87.9861C23.595 94.2741 22.7249 99.0257 21.6103 99.5833L13.4609 97.5461L10.2364 96.7381L10.1511 89.6591L9.66775 50.6452L0 10.2429L0 0L24.4537 2.27619L28.3322 8.37069L28.4346 8.53571C28.4346 8.53571 22.7477 48.9381 24.4537 52.9214Z" transform="translate(260.6348 159.6179)" id="Path" fill="#011830" stroke="none" />
      <path d="M19.3355 65.4405C20.5525 67.2671 22.5828 78.2042 24.2036 87.9861C23.595 94.2741 22.7249 99.0257 21.6103 99.5833L13.4609 97.5461C13.3358 97.2844 13.2107 97.0112 13.0799 96.7381C12.0392 94.5529 11.0611 92.1402 10.1512 89.6591L9.66776 50.6452L0 10.2429L0 0L24.4538 2.27619L28.3323 8.37069L5.68692 6.82857L10.8051 29.0214L17.0608 52.3524C17.0608 52.3524 17.0608 62.0262 19.3355 65.4405Z" transform="translate(260.6348 159.6179)" id="Path" fill="#000000" fill-opacity="0.1" stroke="none" />
      <path d="M2.70919 7.39762C2.70919 7.39762 -5.2525 25.0381 6.12134 49.5071C13.1594 64.7345 19.423 80.3083 24.8882 96.169C24.8882 96.169 28.869 114.948 34.5559 126.898C40.2429 138.848 39.1055 139.417 39.1055 139.417L48.2045 134.295C48.2045 134.295 43.0863 99.0143 40.8116 95.6C38.5368 92.1857 38.5368 82.5119 38.5368 82.5119L32.2812 59.1809L27.1629 36.9881L52.1854 38.6952C52.1854 38.6952 52.1854 6.25952 40.8116 0L2.70919 7.39762Z" transform="translate(236.8843 129.4583)" id="Path" fill="#01172C" stroke="none" />
      <path d="M13.217 0C13.217 0 13.217 9.10476 10.3735 9.67381C7.53004 10.2429 1.84313 10.2429 0.13705 13.0881C-1.56903 15.9333 13.217 53.4905 13.217 53.4905L28.5716 43.8167L33.6899 18.2095C33.6899 18.2095 26.2969 13.6571 26.2969 11.381L26.2969 1.1381L13.217 0Z" transform="translate(235.7595 63.7334)" id="Path" fill="#A0616A" stroke="none" />
      <path d="M13.217 0C13.217 0 13.217 9.10476 10.3735 9.67381C7.53004 10.2429 1.84313 10.2429 0.13705 13.0881C-1.56903 15.9333 13.217 53.4905 13.217 53.4905L28.5716 43.8167L33.6899 18.2095C33.6899 18.2095 26.2969 13.6571 26.2969 11.381L26.2969 1.1381L13.217 0Z" transform="translate(235.7595 63.7334)" id="Path" fill="#000000" fill-opacity="0.1" stroke="none" />
      <path d="M13.6486 27.3143C21.1865 27.3143 27.2972 21.1998 27.2972 13.6571C27.2972 6.11451 21.1865 0 13.6486 0C6.11069 0 0 6.11451 0 13.6571C0 21.1998 6.11069 27.3143 13.6486 27.3143Z" transform="translate(244.1426 46.37744)" id="Oval" fill="#A0616A" stroke="none" />
      <path d="M29.572 32.4357C29.572 32.4357 24.4538 0 23.3164 0C22.179 0 6.25561 3.41429 5.11823 3.98333C3.98084 4.55238 0 9.67381 0 9.67381L7.96169 32.4357C7.96169 32.4357 11.3738 48.369 13.6486 51.2143C15.9234 54.0595 20.4729 62.0262 18.1981 63.1643C15.9234 64.3024 13.6486 66.0095 15.9234 66.0095C18.1981 66.0095 36.965 62.5952 38.1024 64.3024C39.2398 66.0095 58.0066 58.0429 58.0066 57.4738C58.0066 56.9048 55.7318 30.1595 55.7318 30.1595L61.4187 17.0714L44.358 5.12143L29.572 32.4357Z" transform="translate(221.1106 73.4071)" id="Path" fill="#0071BB" stroke="none" />
      <path d="M36.3963 0L30.7094 2.84524C30.7094 2.84524 14.786 39.2643 13.6486 39.8333C12.5112 40.4024 6.8243 51.2143 6.25561 53.4905C5.68692 55.7667 4.54953 63.1643 2.84346 64.3024C1.92833 64.9242 0.979011 65.4942 0 66.0095C0 66.0095 3.41215 71.7 5.11823 71.7C6.8243 71.7 12.5112 63.7333 12.5112 63.7333C12.5112 63.7333 25.0224 71.7 28.4346 65.4405C31.8467 59.181 40.3771 19.3476 40.3771 19.3476L36.3963 0Z" transform="translate(190.4016 80.23584)" id="Path" fill="#0071BB" stroke="none" />
      <path d="M13.8645 17.2576C13.8645 17.2576 5.90278 -2.09002 1.35324 0.18617C-3.1963 2.46236 4.76539 16.1195 9.88362 18.3957L13.8645 17.2576Z" transform="translate(257.5754 80.33398)" id="Path" fill="#A0616A" stroke="none" />
      <path d="M4.79833 1.80487L12.7774 0L14.4661 8.63344C14.4661 8.63344 21.8591 21.7215 20.153 27.412C18.4469 33.1025 8.21048 42.2072 4.79833 37.0858C1.38618 31.9644 -1.45727 23.9977 0.817493 19.4453C3.09226 14.893 6.50441 4.08106 4.79833 1.80487Z" transform="translate(258.6797 96.35571)" id="Path" fill="#000000" fill-opacity="0.1" stroke="none" />
      <path d="M4.79833 1.80487L12.7774 0L14.4661 8.63344C14.4661 8.63344 21.8591 21.7215 20.153 27.412C18.4469 33.1025 8.21048 42.2072 4.79833 37.0858C1.38618 31.9644 -1.45727 23.9977 0.817493 19.4453C3.09226 14.893 6.50441 4.08106 4.79833 1.80487Z" transform="translate(260.3862 95.21765)" id="Path" fill="#0071BB" stroke="none" />
      <path d="M6.54004 27.3003C10.1538 27.2994 13.0849 21.1874 13.0867 13.6486C13.0885 6.1098 10.1604 -0.00088501 6.5466 0C2.93283 0.000854492 0.00180817 6.11295 0 13.6517C-0.0018158 21.1905 2.92627 27.3012 6.54004 27.3003Z" transform="matrix(0.4241994 -0.9055688 0.9055688 0.4241994 246.3516 51.63391)" id="Oval" fill="#2F2E41" stroke="none" />
      <path d="M7.96169 15.9333C12.3588 15.9333 15.9234 12.3665 15.9234 7.96666C15.9234 3.5668 12.3588 0 7.96169 0C3.56457 0 0 3.5668 0 7.96666C0 12.3665 3.56457 15.9333 7.96169 15.9333Z" transform="translate(263.7625 31.86658)" id="Oval" fill="#2F2E41" stroke="none" />
      <path d="M1.71746 7.96681C1.71801 3.89778 4.78301 0.483137 8.82611 0.0472441C5.79239 -0.284299 2.83621 1.14851 1.21552 3.73597C-0.405173 6.32343 -0.405173 9.6102 1.21552 12.1977C2.83621 14.7851 5.79239 16.2179 8.82611 15.8864C4.78301 15.4505 1.71801 12.0359 1.71746 7.96681L1.71746 7.96681Z" transform="translate(262.614 29.02136)" id="Path" fill="#2F2E41" stroke="none" />
      <path d="M0 0L199.042 0L199.042 138.279L0 138.279L0 0Z" transform="translate(36.85474 157.6262)" id="Rectangle" fill="#2F2E41" stroke="none" />
      <path d="M0 0L26.1598 0L26.1598 26.1762L0 26.1762L0 0Z" transform="translate(52.77808 171.2834)" id="Rectangle" fill="#F2F2F2" stroke="none" />
      <path d="M0 0L26.1598 0L26.1598 26.1762L0 26.1762L0 0Z" transform="translate(52.77808 213.962)" id="Rectangle" fill="#0071BB" stroke="none" />
      <path d="M0 0L26.1598 0L26.1598 26.1762L0 26.1762L0 0Z" transform="translate(52.77808 256.6404)" id="Rectangle" fill="#F2F2F2" stroke="none" />
      <path d="M0 0L124.544 0L124.544 2.2762L0 2.2762L0 0Z" transform="translate(91.44897 179.5347)" id="Rectangle" fill="#F2F2F2" stroke="none" />
      <path d="M0 0L38.671 0L38.671 2.2762L0 2.2762L0 0Z" transform="translate(91.44897 186.9321)" id="Rectangle" fill="#F2F2F2" stroke="none" />
      <path d="M0 0L124.544 0L124.544 2.2762L0 2.2762L0 0Z" transform="translate(91.44897 222.2129)" id="Rectangle" fill="#F2F2F2" stroke="none" />
      <path d="M0 0L38.671 0L38.671 2.2762L0 2.2762L0 0Z" transform="translate(91.44897 229.6107)" id="Rectangle" fill="#F2F2F2" stroke="none" />
      <path d="M0 0L124.544 0L124.544 2.27618L0 2.27618L0 0Z" transform="translate(91.44897 264.8916)" id="Rectangle" fill="#F2F2F2" stroke="none" />
      <path d="M0 0L38.671 0L38.671 2.27618L0 2.27618L0 0Z" transform="translate(91.44897 272.2893)" id="Rectangle" fill="#F2F2F2" stroke="none" />
      <path d="M30.7414 26.3186C30.7414 37.9023 23.8603 41.9467 15.3707 41.9467C15.1741 41.9467 14.9774 41.9438 14.7822 41.9396C14.3889 41.9311 13.9985 41.9127 13.6137 41.8858C5.95164 41.3436 0 37.0912 0 26.3186C0 15.1723 14.2347 1.10559 15.3071 0.062305L15.3085 0.0608881C15.3495 0.0198427 15.3707 0 15.3707 0C15.3707 0 30.7414 14.7363 30.7414 26.3186Z" transform="translate(33.4104 275.2382)" id="Path" fill="#0071BB" stroke="none" />
      <path d="M6.17799 40.1743L11.8 32.315L6.16383 41.0378L6.14969 41.9395C5.7564 41.9311 5.36594 41.9127 4.98115 41.8858L5.58663 30.2978L5.5824 30.2072L5.5923 30.1916L5.65031 29.0959L0 20.3519L5.66728 28.2749L5.68143 28.5071L6.13838 19.7517L1.30151 10.716L6.19779 18.2158L6.67455 0.0622823L6.67596 0L6.67596 0.0608881L6.59674 14.3753L11.4124 8.7002L6.57693 15.6083L6.44961 23.4478L10.9469 15.9239L6.43122 24.6015L6.36049 28.9601L12.8865 18.4876L6.33502 30.4804L6.17799 40.1743Z" transform="translate(42.04272 275.2384)" id="Path" fill="#3F3D56" stroke="none" />
    </g>
  </g>
</svg>