<?xml version="1.0" encoding="utf-8"?>
<!-- Generator: Adobe Illustrator 24.1.1, SVG Export Plug-In . SVG Version: 6.00 Build 0)  -->
<svg version="1.1" id="Capa_1" xmlns="http://www.w3.org/2000/svg" xmlns:xlink="http://www.w3.org/1999/xlink" x="0px" y="0px"
	 viewBox="0 0 681.34 150.64" style="enable-background:new 0 0 681.34 150.64;" xml:space="preserve">
<style type="text/css">
	.st0{clip-path:url(#SVGID_1_);}
	.st1{clip-path:url(#SVGID_2_);fill:#FFFFFF;}
	.st2{clip-path:url(#SVGID_3_);}
	.st3{clip-path:url(#SVGID_4_);fill:#FFFFFF;}
	.st4{clip-path:url(#SVGID_5_);}
	.st5{clip-path:url(#SVGID_6_);fill:#FFFFFF;}
	.st6{clip-path:url(#SVGID_7_);}
	.st7{clip-path:url(#SVGID_8_);fill:#FFFFFF;}
	.st8{clip-path:url(#SVGID_9_);}
	.st9{clip-path:url(#SVGID_10_);fill:#FFFFFF;}
	.st10{clip-path:url(#SVGID_11_);}
	.st11{clip-path:url(#SVGID_12_);fill:#FFFFFF;}
	.st12{clip-path:url(#SVGID_13_);}
	.st13{clip-path:url(#SVGID_14_);fill:#FFFFFF;}
	.st14{clip-path:url(#SVGID_15_);}
	.st15{clip-path:url(#SVGID_16_);fill:#FFFFFF;}
	.st16{clip-path:url(#SVGID_17_);}
	.st17{clip-path:url(#SVGID_18_);fill:#FFFFFF;}
	.st18{clip-path:url(#SVGID_19_);}
	.st19{clip-path:url(#SVGID_20_);fill:#FFFFFF;}
	.st20{clip-path:url(#SVGID_21_);}
	.st21{clip-path:url(#SVGID_22_);fill:#FFFFFF;}
	.st22{clip-path:url(#SVGID_23_);}
	.st23{clip-path:url(#SVGID_24_);fill:#FFFFFF;}
	.st24{clip-path:url(#SVGID_25_);}
	.st25{clip-path:url(#SVGID_26_);fill:#FFFFFF;}
	.st26{clip-path:url(#SVGID_27_);}
	.st27{clip-path:url(#SVGID_28_);fill:#FFFFFF;}
	.st28{clip-path:url(#SVGID_30_);enable-background:new    ;}
	.st29{clip-path:url(#SVGID_32_);}
	.st30{clip-path:url(#SVGID_34_);fill:#FFFFFF;}
	.st31{clip-path:url(#SVGID_36_);}
	.st32{clip-path:url(#SVGID_38_);}
	.st33{clip-path:url(#SVGID_40_);fill:#FFFFFF;}
	.st34{clip-path:url(#SVGID_42_);}
	.st35{clip-path:url(#SVGID_44_);}
	.st36{clip-path:url(#SVGID_46_);fill:#FFFFFF;}
	.st37{clip-path:url(#SVGID_48_);}
	.st38{clip-path:url(#SVGID_50_);}
	.st39{clip-path:url(#SVGID_52_);fill:#FFFFFF;}
	.st40{clip-path:url(#SVGID_54_);}
	.st41{clip-path:url(#SVGID_56_);}
	.st42{clip-path:url(#SVGID_60_);fill:#FFFFFF;}
	.st43{clip-path:url(#SVGID_64_);}
	.st44{clip-path:url(#SVGID_68_);}
	.st45{clip-path:url(#SVGID_72_);fill:#FFFFFF;}
	.st46{clip-path:url(#SVGID_76_);}
	.st47{clip-path:url(#SVGID_80_);fill:#FFFFFF;}
	.st48{clip-path:url(#SVGID_84_);}
	.st49{clip-path:url(#SVGID_88_);}
	.st50{clip-path:url(#SVGID_92_);fill:#FFFFFF;}
	.st51{clip-path:url(#SVGID_96_);}
	.st52{clip-path:url(#SVGID_100_);}
	.st53{clip-path:url(#SVGID_104_);fill:#FFFFFF;}
	.st54{clip-path:url(#SVGID_108_);}
	.st55{clip-path:url(#SVGID_112_);}
	.st56{clip-path:url(#SVGID_114_);fill:#FFFFFF;}
	.st57{clip-path:url(#SVGID_116_);}
	.st58{clip-path:url(#SVGID_118_);}
	.st59{clip-path:url(#SVGID_120_);fill:#FFFFFF;}
</style>
<g>
	<defs>
		<polygon id="SVGID_57_" points="69.6,31.82 69.6,103.37 69.34,103.37 10.52,31.82 3.34,31.82 3.34,109.82 9.08,109.82 9.08,37.72 
			9.34,37.72 68.56,109.82 75.34,109.82 75.34,31.82 		"/>
	</defs>
	<clipPath id="SVGID_1_">
		<use xlink:href="#SVGID_57_"  style="overflow:visible;"/>
	</clipPath>
	<g class="st0">
		<defs>
			<rect id="SVGID_59_" x="-1138.66" y="-744.18" width="2048" height="1618"/>
		</defs>
		<clipPath id="SVGID_2_">
			<use xlink:href="#SVGID_59_"  style="overflow:visible;"/>
		</clipPath>
		<rect x="-6.66" y="21.82" class="st1" width="92" height="98"/>
	</g>
</g>
<g>
	<defs>
		<polygon id="SVGID_61_" points="159.34,105.67 101.15,105.67 101.15,71.37 155.25,71.37 155.25,67.21 101.15,67.21 101.15,35.97 
			158.68,35.97 158.68,31.82 95.34,31.82 95.34,109.82 159.34,109.82 		"/>
	</defs>
	<clipPath id="SVGID_3_">
		<use xlink:href="#SVGID_61_"  style="overflow:visible;"/>
	</clipPath>
	<g class="st2">
		<defs>
			<rect id="SVGID_63_" x="-1138.66" y="-744.18" width="2048" height="1618"/>
		</defs>
		<clipPath id="SVGID_4_">
			<use xlink:href="#SVGID_63_"  style="overflow:visible;"/>
		</clipPath>
		<rect x="85.34" y="21.82" class="st3" width="84" height="98"/>
	</g>
</g>
<g>
	<defs>
		<polygon id="SVGID_65_" points="272.51,1.82 215.56,65.5 186.55,31.78 180,31.78 212.1,69.04 141.34,147.71 148.86,147.82 
			215.56,72.59 246.63,108.46 253.43,108.46 219.28,69.04 279.34,1.82 		"/>
	</defs>
	<clipPath id="SVGID_5_">
		<use xlink:href="#SVGID_65_"  style="overflow:visible;"/>
	</clipPath>
	<g class="st4">
		<defs>
			<rect id="SVGID_67_" x="-1138.66" y="-744.18" width="2048" height="1618"/>
		</defs>
		<clipPath id="SVGID_6_">
			<use xlink:href="#SVGID_67_"  style="overflow:visible;"/>
		</clipPath>
		<rect x="131.34" y="-8.18" class="st5" width="158" height="166"/>
	</g>
</g>
<g>
	<defs>
		<path id="SVGID_69_" d="M328.85,34.49c-2.7-1.56-5.61-2.6-8.74-3.11c-3.13-0.51-5.98-0.76-8.55-0.76h-39.07v77.9h5.66v-34.7h31.36
			c9.25,0,16.36-1.85,21.33-5.56s7.45-8.98,7.45-15.82c0-4.65-0.9-8.42-2.7-11.29C333.79,38.27,331.55,36.05,328.85,34.49
			 M331.48,58.44c-0.77,2.04-2.02,3.89-3.73,5.56c-1.71,1.67-4.01,3.04-6.88,4.09c-2.87,1.06-6.36,1.58-10.47,1.58h-32.26V34.76
			h33.03c4.63,0,8.33,0.64,11.12,1.91c2.78,1.27,4.95,2.84,6.49,4.69c1.54,1.85,2.57,3.78,3.09,5.78c0.51,2,0.77,3.73,0.77,5.18
			C332.64,54.36,332.25,56.4,331.48,58.44"/>
	</defs>
	<clipPath id="SVGID_7_">
		<use xlink:href="#SVGID_69_"  style="overflow:visible;"/>
	</clipPath>
	<g class="st6">
		<defs>
			<rect id="SVGID_71_" x="-1138.66" y="-744.18" width="2048" height="1618"/>
		</defs>
		<clipPath id="SVGID_8_">
			<use xlink:href="#SVGID_71_"  style="overflow:visible;"/>
		</clipPath>
		<rect x="262.49" y="20.61" class="st7" width="85.8" height="97.9"/>
	</g>
</g>
<g>
	<defs>
		<polygon id="SVGID_73_" points="364.54,30.61 358.89,30.61 358.89,108.52 416.59,108.52 416.59,104.37 364.54,104.37 		"/>
	</defs>
	<clipPath id="SVGID_9_">
		<use xlink:href="#SVGID_73_"  style="overflow:visible;"/>
	</clipPath>
	<g class="st8">
		<defs>
			<rect id="SVGID_75_" x="-1138.66" y="-744.18" width="2048" height="1618"/>
		</defs>
		<clipPath id="SVGID_10_">
			<use xlink:href="#SVGID_75_"  style="overflow:visible;"/>
		</clipPath>
		<rect x="348.89" y="20.61" class="st9" width="77.71" height="97.9"/>
	</g>
</g>
<g>
	<defs>
		<path id="SVGID_77_" d="M509.16,85.55c1.97-4.98,2.96-10.31,2.96-15.98s-0.98-11-2.96-15.98c-1.97-4.98-4.82-9.31-8.55-12.98
			c-3.73-3.67-8.29-6.56-13.69-8.67c-5.4-2.11-11.53-3.16-18.38-3.16c-6.85,0-13,1.06-18.44,3.16c-5.44,2.11-10.02,5-13.75,8.67
			c-3.73,3.67-6.58,8-8.55,12.98c-1.97,4.98-2.96,10.31-2.96,15.98s0.99,11,2.96,15.98c1.97,4.98,4.82,9.31,8.55,12.98
			c3.73,3.67,8.31,6.57,13.75,8.68c5.44,2.11,11.59,3.16,18.44,3.16c6.85,0,12.98-1.05,18.38-3.16c5.4-2.11,9.96-5,13.69-8.68
			C504.34,94.86,507.19,90.53,509.16,85.55 M484.54,103.28c-4.67,1.96-10,2.95-16,2.95c-6,0-11.35-0.98-16.07-2.95
			c-4.71-1.96-8.7-4.6-11.95-7.91c-3.26-3.31-5.74-7.18-7.45-11.62c-1.71-4.44-2.57-9.16-2.57-14.18c0-5.02,0.86-9.75,2.57-14.18
			c1.71-4.44,4.2-8.31,7.45-11.62c3.26-3.31,7.24-5.95,11.95-7.91c4.71-1.96,10.07-2.95,16.07-2.95c6,0,11.33,0.98,16,2.95
			c4.67,1.96,8.63,4.6,11.89,7.91c3.25,3.31,5.74,7.18,7.45,11.62c1.71,4.44,2.57,9.16,2.57,14.18c0,5.02-0.86,9.75-2.57,14.18
			c-1.71,4.44-4.2,8.31-7.45,11.62C493.18,98.68,489.21,101.31,484.54,103.28"/>
	</defs>
	<clipPath id="SVGID_11_">
		<use xlink:href="#SVGID_77_"  style="overflow:visible;"/>
	</clipPath>
	<g class="st10">
		<defs>
			<rect id="SVGID_79_" x="-1138.66" y="-744.18" width="2048" height="1618"/>
		</defs>
		<clipPath id="SVGID_12_">
			<use xlink:href="#SVGID_79_"  style="overflow:visible;"/>
		</clipPath>
		<rect x="414.85" y="18.76" class="st11" width="107.26" height="101.61"/>
	</g>
</g>
<g>
	<defs>
		<path id="SVGID_81_" d="M590.77,86.75c0.26,2.58,0.39,5.18,0.39,7.8c0,2.62,0.06,5.15,0.19,7.58c0.13,2.44,0.79,4.57,1.99,6.38
			h6.3c-0.69-0.73-1.22-1.64-1.61-2.73c-0.39-1.09-0.67-2.27-0.84-3.55c-0.17-1.27-0.26-2.64-0.26-4.09v-4.47
			c0-2.54-0.17-5.09-0.51-7.64c-0.34-2.55-1.11-4.87-2.31-6.98c-1.2-2.11-3.02-3.89-5.46-5.35c-2.44-1.45-5.76-2.4-9.96-2.84v-0.22
			c6.17-0.87,10.99-3.11,14.46-6.71c3.47-3.6,5.2-8.02,5.2-13.26c0-3.78-0.75-6.94-2.25-9.49c-1.5-2.55-3.58-4.6-6.23-6.17
			c-2.66-1.56-5.74-2.69-9.25-3.38c-3.51-0.69-7.28-1.04-11.31-1.04H531v77.9h5.66V73.06h32.65c5.4,0,9.57,0.62,12.53,1.85
			c2.95,1.24,5.12,2.88,6.49,4.91C589.7,81.86,590.51,84.17,590.77,86.75 M569.3,68.91h-32.65V34.76h32.65
			c3.08,0,6.04,0.29,8.87,0.87c2.83,0.58,5.31,1.53,7.46,2.84c2.14,1.31,3.85,3,5.14,5.07c1.28,2.07,1.93,4.57,1.93,7.47
			c0,3.13-0.6,5.82-1.8,8.07c-1.2,2.26-2.83,4.11-4.88,5.56c-2.06,1.46-4.52,2.53-7.39,3.22C575.75,68.56,572.65,68.91,569.3,68.91"
			/>
	</defs>
	<clipPath id="SVGID_13_">
		<use xlink:href="#SVGID_81_"  style="overflow:visible;"/>
	</clipPath>
	<g class="st12">
		<defs>
			<rect id="SVGID_83_" x="-1138.66" y="-744.18" width="2048" height="1618"/>
		</defs>
		<clipPath id="SVGID_14_">
			<use xlink:href="#SVGID_83_"  style="overflow:visible;"/>
		</clipPath>
		<rect x="521" y="20.61" class="st13" width="88.63" height="97.9"/>
	</g>
</g>
<g>
	<defs>
		<polygon id="SVGID_85_" points="624.44,104.37 624.44,70.11 677.13,70.11 677.13,65.96 624.44,65.96 624.44,34.76 680.47,34.76 
			680.47,30.61 618.78,30.61 618.78,108.52 681.11,108.52 681.11,104.37 		"/>
	</defs>
	<clipPath id="SVGID_15_">
		<use xlink:href="#SVGID_85_"  style="overflow:visible;"/>
	</clipPath>
	<g class="st14">
		<defs>
			<rect id="SVGID_87_" x="-1138.66" y="-744.18" width="2048" height="1618"/>
		</defs>
		<clipPath id="SVGID_16_">
			<use xlink:href="#SVGID_87_"  style="overflow:visible;"/>
		</clipPath>
		<rect x="608.78" y="20.61" class="st15" width="82.33" height="97.9"/>
	</g>
</g>
<g>
	<defs>
		<polygon id="SVGID_89_" points="275.2,141.52 285.77,141.52 285.77,139.59 275.2,139.59 275.2,134.1 286.54,134.1 286.54,132.16 
			272.49,132.16 272.49,149.43 286.63,149.43 286.63,147.5 275.2,147.5 		"/>
	</defs>
	<clipPath id="SVGID_17_">
		<use xlink:href="#SVGID_89_"  style="overflow:visible;"/>
	</clipPath>
	<g class="st16">
		<defs>
			<rect id="SVGID_91_" x="-1138.66" y="-744.18" width="2048" height="1618"/>
		</defs>
		<clipPath id="SVGID_18_">
			<use xlink:href="#SVGID_91_"  style="overflow:visible;"/>
		</clipPath>
		<rect x="262.49" y="122.16" class="st17" width="34.14" height="37.27"/>
	</g>
</g>
<g>
	<defs>
		<polygon id="SVGID_93_" points="310.39,132.16 307.37,132.16 302.07,138.91 297,132.16 293.75,132.16 300.45,140.55 
			293.38,149.43 296.4,149.43 302.04,142.3 307.51,149.43 310.82,149.43 303.67,140.55 		"/>
	</defs>
	<clipPath id="SVGID_19_">
		<use xlink:href="#SVGID_93_"  style="overflow:visible;"/>
	</clipPath>
	<g class="st18">
		<defs>
			<rect id="SVGID_95_" x="-1138.66" y="-744.18" width="2048" height="1618"/>
		</defs>
		<clipPath id="SVGID_20_">
			<use xlink:href="#SVGID_95_"  style="overflow:visible;"/>
		</clipPath>
		<rect x="283.38" y="122.16" class="st19" width="37.44" height="37.27"/>
	</g>
</g>
<g>
	<defs>
		<path id="SVGID_97_" d="M332.29,133.5c-1.06-0.9-2.61-1.34-4.66-1.34h-8.92v17.27h2.71v-7.06h6.21c2.05,0.02,3.6-0.43,4.66-1.33
			c1.05-0.9,1.58-2.16,1.58-3.78C333.87,135.65,333.34,134.4,332.29,133.5 M330.1,139.64c-0.71,0.55-1.84,0.81-3.38,0.8h-5.3v-6.34
			h5.3c1.54,0,2.67,0.27,3.38,0.81c0.71,0.54,1.07,1.33,1.07,2.36C331.16,138.3,330.81,139.09,330.1,139.64"/>
	</defs>
	<clipPath id="SVGID_21_">
		<use xlink:href="#SVGID_97_"  style="overflow:visible;"/>
	</clipPath>
	<g class="st20">
		<defs>
			<rect id="SVGID_99_" x="-1138.66" y="-744.18" width="2048" height="1618"/>
		</defs>
		<clipPath id="SVGID_22_">
			<use xlink:href="#SVGID_99_"  style="overflow:visible;"/>
		</clipPath>
		<rect x="308.71" y="122.16" class="st21" width="35.16" height="37.27"/>
	</g>
</g>
<g>
	<defs>
		<path id="SVGID_101_" d="M346.3,132.16l-7.92,17.27h2.76l2.28-5.2h8.61l2.22,5.2h2.99l-7.95-17.27H346.3z M344.27,142.3l3.45-8.06
			h0.06l3.39,8.06H344.27z"/>
	</defs>
	<clipPath id="SVGID_23_">
		<use xlink:href="#SVGID_101_"  style="overflow:visible;"/>
	</clipPath>
	<g class="st22">
		<defs>
			<rect id="SVGID_103_" x="-1138.66" y="-744.18" width="2048" height="1618"/>
		</defs>
		<clipPath id="SVGID_24_">
			<use xlink:href="#SVGID_103_"  style="overflow:visible;"/>
		</clipPath>
		<rect x="328.38" y="122.16" class="st23" width="38.86" height="37.27"/>
	</g>
</g>
<g>
	<defs>
		<polygon id="SVGID_105_" points="378.55,146.17 378.5,146.17 367.78,132.16 364.9,132.16 364.9,149.43 367.47,149.43 
			367.47,135.57 367.53,135.57 378.16,149.43 381.12,149.43 381.12,132.16 378.55,132.16 		"/>
	</defs>
	<clipPath id="SVGID_25_">
		<use xlink:href="#SVGID_105_"  style="overflow:visible;"/>
	</clipPath>
	<g class="st24">
		<defs>
			<rect id="SVGID_107_" x="-1138.66" y="-744.18" width="2048" height="1618"/>
		</defs>
		<clipPath id="SVGID_26_">
			<use xlink:href="#SVGID_107_"  style="overflow:visible;"/>
		</clipPath>
		<rect x="354.9" y="122.16" class="st25" width="36.22" height="37.27"/>
	</g>
</g>
<g>
	<defs>
		<path id="SVGID_109_" d="M405.42,134.19c-1.69-1.36-4.1-2.03-7.24-2.03h-6.98v17.27h6.98c1.69,0,3.15-0.2,4.39-0.6
			c1.23-0.4,2.25-0.99,3.05-1.75c0.8-0.77,1.39-1.71,1.77-2.83c0.38-1.12,0.57-2.41,0.57-3.86
			C407.96,137.61,407.11,135.55,405.42,134.19 M404.87,143.42c-0.25,0.75-0.58,1.38-0.98,1.88c-0.4,0.5-0.85,0.9-1.35,1.19
			c-0.5,0.29-1.01,0.51-1.53,0.66c-0.51,0.15-1,0.25-1.45,0.29c-0.46,0.04-0.84,0.06-1.14,0.06h-4.5v-13.4h4.56
			c1.25,0,2.31,0.15,3.16,0.45c0.85,0.3,1.55,0.73,2.09,1.31c0.54,0.57,0.93,1.27,1.17,2.08c0.24,0.81,0.36,1.74,0.36,2.77
			C405.25,141.76,405.12,142.67,404.87,143.42"/>
	</defs>
	<clipPath id="SVGID_27_">
		<use xlink:href="#SVGID_109_"  style="overflow:visible;"/>
	</clipPath>
	<g class="st26">
		<defs>
			<rect id="SVGID_111_" x="-1138.66" y="-744.18" width="2048" height="1618"/>
		</defs>
		<clipPath id="SVGID_28_">
			<use xlink:href="#SVGID_111_"  style="overflow:visible;"/>
		</clipPath>
		<rect x="381.2" y="122.16" class="st27" width="36.75" height="37.27"/>
	</g>
</g>
<g>
	<g>
		<defs>
			<rect id="SVGID_29_" x="3.34" width="677.77" height="149.64"/>
		</defs>
		<clipPath id="SVGID_30_">
			<use xlink:href="#SVGID_29_"  style="overflow:visible;"/>
		</clipPath>
		<g class="st28">
			<g>
				<g>
					<defs>
						<rect id="SVGID_31_" x="416.34" y="130.64" width="265" height="20"/>
					</defs>
					<clipPath id="SVGID_32_">
						<use xlink:href="#SVGID_31_"  style="overflow:visible;"/>
					</clipPath>
					<g class="st29">
						<g>
							<defs>
								<rect id="SVGID_33_" x="417.08" y="131.98" width="2.71" height="17.27"/>
							</defs>
							<clipPath id="SVGID_34_">
								<use xlink:href="#SVGID_33_"  style="overflow:visible;"/>
							</clipPath>
							<rect x="407.08" y="121.98" class="st30" width="22.71" height="37.27"/>
						</g>
					</g>
				</g>
				<g>
					<defs>
						<rect id="SVGID_35_" x="416.34" y="130.64" width="265" height="20"/>
					</defs>
					<clipPath id="SVGID_36_">
						<use xlink:href="#SVGID_35_"  style="overflow:visible;"/>
					</clipPath>
					<g class="st31">
						<g>
							<defs>
								<polygon id="SVGID_37_" points="443.66,145.99 443.6,145.99 432.89,131.98 430.01,131.98 430.01,149.25 432.57,149.25 
									432.57,135.39 432.63,135.39 443.26,149.25 446.23,149.25 446.23,131.98 443.66,131.98 								"/>
							</defs>
							<clipPath id="SVGID_38_">
								<use xlink:href="#SVGID_37_"  style="overflow:visible;"/>
							</clipPath>
							<g class="st32">
								<g>
									<defs>
										<rect id="SVGID_39_" x="3.34" y="-0.36" width="678" height="150"/>
									</defs>
									<clipPath id="SVGID_40_">
										<use xlink:href="#SVGID_39_"  style="overflow:visible;"/>
									</clipPath>
									<rect x="420.01" y="121.98" class="st33" width="36.22" height="37.27"/>
								</g>
							</g>
						</g>
					</g>
				</g>
				<g>
					<defs>
						<rect id="SVGID_41_" x="416.34" y="130.64" width="265" height="20"/>
					</defs>
					<clipPath id="SVGID_42_">
						<use xlink:href="#SVGID_41_"  style="overflow:visible;"/>
					</clipPath>
					<g class="st34">
						<g>
							<defs>
								<path id="SVGID_43_" d="M465.03,142.09h6.5c0.04,0.79-0.08,1.53-0.37,2.21c-0.29,0.69-0.71,1.28-1.27,1.79
									s-1.25,0.91-2.07,1.2s-1.76,0.44-2.82,0.44c-1.14,0-2.14-0.19-3.01-0.57s-1.59-0.89-2.18-1.52
									c-0.59-0.64-1.04-1.37-1.34-2.2s-0.46-1.7-0.46-2.6c0-0.92,0.14-1.82,0.4-2.7c0.26-0.88,0.68-1.66,1.24-2.35
									s1.28-1.24,2.17-1.66c0.88-0.42,1.94-0.63,3.18-0.63c0.76,0,1.48,0.08,2.15,0.23c0.68,0.15,1.28,0.38,1.81,0.69
									s0.98,0.7,1.34,1.17s0.61,1.04,0.74,1.7h2.7c-0.19-1.02-0.55-1.88-1.07-2.6c-0.52-0.72-1.17-1.31-1.94-1.78
									s-1.64-0.81-2.62-1.03c-0.98-0.22-2.02-0.33-3.12-0.33c-1.62,0-3.03,0.25-4.23,0.76c-1.21,0.51-2.21,1.19-3.02,2.04
									c-0.81,0.86-1.42,1.85-1.83,2.99c-0.41,1.14-0.61,2.33-0.61,3.59c0,1.13,0.22,2.22,0.65,3.26c0.44,1.05,1.07,1.98,1.91,2.78
									c0.84,0.81,1.85,1.45,3.05,1.92c1.2,0.47,2.55,0.71,4.07,0.71c1.2,0,2.38-0.2,3.56-0.59s2.17-1.04,2.96-1.95l0.71,2.15h1.71
									v-9.1H465v1.98H465.03z"/>
							</defs>
							<clipPath id="SVGID_44_">
								<use xlink:href="#SVGID_43_"  style="overflow:visible;"/>
							</clipPath>
							<g class="st35">
								<g>
									<defs>
										<rect id="SVGID_45_" x="3.34" y="-0.36" width="678" height="150"/>
									</defs>
									<clipPath id="SVGID_46_">
										<use xlink:href="#SVGID_45_"  style="overflow:visible;"/>
									</clipPath>
									<rect x="445.32" y="121.57" class="st36" width="38.64" height="38.07"/>
								</g>
							</g>
						</g>
					</g>
				</g>
				<g>
					<defs>
						<rect id="SVGID_47_" x="416.34" y="130.64" width="265" height="20"/>
					</defs>
					<clipPath id="SVGID_48_">
						<use xlink:href="#SVGID_47_"  style="overflow:visible;"/>
					</clipPath>
					<g class="st37">
						<g>
							<defs>
								<polygon id="SVGID_49_" points="510.68,139.41 499.97,139.41 499.97,131.98 497.26,131.98 497.26,149.25 499.97,149.25 
									499.97,141.34 510.68,141.34 510.68,149.25 513.39,149.25 513.39,131.98 510.68,131.98 								"/>
							</defs>
							<clipPath id="SVGID_50_">
								<use xlink:href="#SVGID_49_"  style="overflow:visible;"/>
							</clipPath>
							<g class="st38">
								<g>
									<defs>
										<rect id="SVGID_51_" x="3.34" y="-0.36" width="678" height="150"/>
									</defs>
									<clipPath id="SVGID_52_">
										<use xlink:href="#SVGID_51_"  style="overflow:visible;"/>
									</clipPath>
									<rect x="487.26" y="121.98" class="st39" width="36.13" height="37.27"/>
								</g>
							</g>
						</g>
					</g>
				</g>
				<g>
					<defs>
						<rect id="SVGID_53_" x="416.34" y="130.64" width="265" height="20"/>
					</defs>
					<clipPath id="SVGID_54_">
						<use xlink:href="#SVGID_53_"  style="overflow:visible;"/>
					</clipPath>
					<g class="st40">
						<g>
							<defs>
								<path id="SVGID_55_" d="M539.43,134.33c-0.82-0.84-1.83-1.51-3.05-2.01s-2.63-0.75-4.25-0.75c-1.61,0-3.03,0.25-4.25,0.75
									c-1.21,0.5-2.23,1.17-3.05,2.01c-0.81,0.84-1.43,1.8-1.84,2.89c-0.41,1.09-0.61,2.22-0.61,3.4s0.21,2.31,0.61,3.4
									c0.41,1.09,1.02,2.05,1.84,2.89s1.84,1.5,3.05,2c1.22,0.49,2.63,0.74,4.25,0.74c1.61,0,3.03-0.25,4.25-0.74
									c1.21-0.49,2.23-1.16,3.05-2s1.43-1.8,1.84-2.89c0.41-1.09,0.61-2.22,0.61-3.4s-0.2-2.31-0.61-3.4
									C540.86,136.13,540.25,135.17,539.43,134.33 M538.78,143.19c-0.27,0.85-0.68,1.61-1.26,2.29c-0.57,0.68-1.3,1.22-2.19,1.63
									s-1.96,0.62-3.19,0.62s-2.3-0.21-3.19-0.62c-0.89-0.41-1.62-0.96-2.19-1.63c-0.57-0.68-0.99-1.44-1.26-2.29
									c-0.27-0.85-0.4-1.71-0.4-2.58s0.13-1.73,0.4-2.57c0.27-0.85,0.68-1.61,1.26-2.29c0.57-0.68,1.3-1.22,2.19-1.63
									s1.96-0.62,3.19-0.62s2.3,0.21,3.19,0.62c0.89,0.41,1.63,0.95,2.19,1.63c0.57,0.68,0.99,1.44,1.26,2.29
									c0.27,0.85,0.4,1.71,0.4,2.57C539.18,141.49,539.04,142.34,538.78,143.19"/>
							</defs>
							<clipPath id="SVGID_56_">
								<use xlink:href="#SVGID_55_"  style="overflow:visible;"/>
							</clipPath>
							<g class="st41">
								<g>
									<defs>
										<rect id="SVGID_58_" x="3.34" y="-0.36" width="678" height="150"/>
									</defs>
									<clipPath id="SVGID_60_">
										<use xlink:href="#SVGID_58_"  style="overflow:visible;"/>
									</clipPath>
									<rect x="512.39" y="121.57" class="st42" width="39.49" height="38.07"/>
								</g>
							</g>
						</g>
					</g>
				</g>
				<g>
					<defs>
						<rect id="SVGID_62_" x="416.34" y="130.64" width="265" height="20"/>
					</defs>
					<clipPath id="SVGID_64_">
						<use xlink:href="#SVGID_62_"  style="overflow:visible;"/>
					</clipPath>
					<g class="st43">
						<g>
							<defs>
								<path id="SVGID_66_" d="M566.39,147.05c-0.08-0.42-0.13-0.85-0.14-1.28c-0.02-0.43-0.05-0.86-0.08-1.28
									c-0.06-0.42-0.14-0.82-0.24-1.21s-0.27-0.74-0.48-1.05c-0.22-0.31-0.51-0.58-0.88-0.81c-0.37-0.22-0.85-0.39-1.44-0.48
									v-0.05c1.24-0.29,2.13-0.83,2.69-1.62s0.84-1.71,0.84-2.76c0-1.4-0.55-2.51-1.64-3.31c-1.09-0.81-2.61-1.21-4.55-1.21h-9.58
									v17.27h2.71v-7.38h6.61c0.66,0,1.19,0.08,1.59,0.25s0.72,0.4,0.97,0.68s0.43,0.61,0.54,0.99s0.21,0.78,0.29,1.2
									c0.09,0.42,0.15,0.85,0.17,1.28c0.02,0.44,0.04,0.84,0.06,1.22s0.06,0.72,0.13,1.03s0.19,0.55,0.38,0.72h3.02
									c-0.29-0.29-0.5-0.62-0.64-1C566.57,147.87,566.47,147.47,566.39,147.05 M562.53,139.35c-0.43,0.23-0.92,0.39-1.49,0.47
									s-1.17,0.12-1.8,0.12h-5.64v-6.02h6.73c1.27,0,2.19,0.27,2.76,0.82s0.86,1.26,0.86,2.13c0,0.63-0.13,1.14-0.39,1.54
									C563.3,138.8,562.96,139.11,562.53,139.35"/>
							</defs>
							<clipPath id="SVGID_68_">
								<use xlink:href="#SVGID_66_"  style="overflow:visible;"/>
							</clipPath>
							<g class="st44">
								<g>
									<defs>
										<rect id="SVGID_70_" x="3.34" y="-0.36" width="678" height="150"/>
									</defs>
									<clipPath id="SVGID_72_">
										<use xlink:href="#SVGID_70_"  style="overflow:visible;"/>
									</clipPath>
									<rect x="540.89" y="121.98" class="st45" width="36.47" height="37.27"/>
								</g>
							</g>
						</g>
					</g>
				</g>
				<g>
					<defs>
						<rect id="SVGID_74_" x="416.34" y="130.64" width="265" height="20"/>
					</defs>
					<clipPath id="SVGID_76_">
						<use xlink:href="#SVGID_74_"  style="overflow:visible;"/>
					</clipPath>
					<g class="st46">
						<g>
							<defs>
								<rect id="SVGID_78_" x="576.22" y="131.98" width="2.71" height="17.27"/>
							</defs>
							<clipPath id="SVGID_80_">
								<use xlink:href="#SVGID_78_"  style="overflow:visible;"/>
							</clipPath>
							<rect x="566.22" y="121.98" class="st47" width="22.71" height="37.27"/>
						</g>
					</g>
				</g>
				<g>
					<defs>
						<rect id="SVGID_82_" x="416.34" y="130.64" width="265" height="20"/>
					</defs>
					<clipPath id="SVGID_84_">
						<use xlink:href="#SVGID_82_"  style="overflow:visible;"/>
					</clipPath>
					<g class="st48">
						<g>
							<defs>
								<polygon id="SVGID_86_" points="603.43,133.92 603.43,131.98 588.56,131.98 588.56,133.92 600.24,133.92 587.59,147.32 
									587.59,149.25 603.77,149.25 603.77,147.32 590.81,147.32 								"/>
							</defs>
							<clipPath id="SVGID_88_">
								<use xlink:href="#SVGID_86_"  style="overflow:visible;"/>
							</clipPath>
							<g class="st49">
								<g>
									<defs>
										<rect id="SVGID_90_" x="3.34" y="-0.36" width="678" height="150"/>
									</defs>
									<clipPath id="SVGID_92_">
										<use xlink:href="#SVGID_90_"  style="overflow:visible;"/>
									</clipPath>
									<rect x="577.59" y="121.98" class="st50" width="36.18" height="37.27"/>
								</g>
							</g>
						</g>
					</g>
				</g>
				<g>
					<defs>
						<rect id="SVGID_94_" x="416.34" y="130.64" width="265" height="20"/>
					</defs>
					<clipPath id="SVGID_96_">
						<use xlink:href="#SVGID_94_"  style="overflow:visible;"/>
					</clipPath>
					<g class="st51">
						<g>
							<defs>
								<path id="SVGID_98_" d="M628.2,134.33c-0.82-0.84-1.84-1.51-3.05-2.01c-1.22-0.5-2.63-0.75-4.24-0.75s-3.03,0.25-4.25,0.75
									c-1.21,0.5-2.23,1.17-3.05,2.01s-1.43,1.8-1.84,2.89c-0.41,1.09-0.61,2.22-0.61,3.4s0.2,2.31,0.61,3.4s1.02,2.05,1.84,2.89
									s1.83,1.5,3.05,2c1.22,0.49,2.63,0.74,4.25,0.74c1.61,0,3.03-0.25,4.24-0.74c1.21-0.49,2.23-1.16,3.05-2s1.43-1.8,1.84-2.89
									c0.41-1.09,0.61-2.22,0.61-3.4s-0.21-2.31-0.61-3.4C629.63,136.13,629.01,135.17,628.2,134.33 M627.54,143.19
									c-0.27,0.85-0.69,1.61-1.26,2.29s-1.3,1.22-2.19,1.63s-1.96,0.62-3.19,0.62c-1.24,0-2.3-0.21-3.19-0.62
									c-0.89-0.41-1.62-0.96-2.19-1.63c-0.57-0.68-0.99-1.44-1.26-2.29c-0.27-0.85-0.4-1.71-0.4-2.58s0.13-1.73,0.4-2.57
									c0.27-0.85,0.68-1.61,1.26-2.29c0.57-0.68,1.3-1.22,2.19-1.63s1.96-0.62,3.19-0.62s2.3,0.21,3.19,0.62
									c0.89,0.41,1.63,0.95,2.19,1.63c0.57,0.68,0.99,1.44,1.26,2.29c0.27,0.85,0.4,1.71,0.4,2.57
									C627.94,141.49,627.81,142.34,627.54,143.19"/>
							</defs>
							<clipPath id="SVGID_100_">
								<use xlink:href="#SVGID_98_"  style="overflow:visible;"/>
							</clipPath>
							<g class="st52">
								<g>
									<defs>
										<rect id="SVGID_102_" x="3.34" y="-0.36" width="678" height="150"/>
									</defs>
									<clipPath id="SVGID_104_">
										<use xlink:href="#SVGID_102_"  style="overflow:visible;"/>
									</clipPath>
									<rect x="601.16" y="121.57" class="st53" width="39.49" height="38.07"/>
								</g>
							</g>
						</g>
					</g>
				</g>
				<g>
					<defs>
						<rect id="SVGID_106_" x="416.34" y="130.64" width="265" height="20"/>
					</defs>
					<clipPath id="SVGID_108_">
						<use xlink:href="#SVGID_106_"  style="overflow:visible;"/>
					</clipPath>
					<g class="st54">
						<g>
							<defs>
								<polygon id="SVGID_110_" points="653.27,145.99 653.21,145.99 642.5,131.98 639.62,131.98 639.62,149.25 642.19,149.25 
									642.19,135.39 642.24,135.39 652.87,149.25 655.84,149.25 655.84,131.98 653.27,131.98 								"/>
							</defs>
							<clipPath id="SVGID_112_">
								<use xlink:href="#SVGID_110_"  style="overflow:visible;"/>
							</clipPath>
							<g class="st55">
								<g>
									<defs>
										<rect id="SVGID_113_" x="3.34" y="-0.36" width="678" height="150"/>
									</defs>
									<clipPath id="SVGID_114_">
										<use xlink:href="#SVGID_113_"  style="overflow:visible;"/>
									</clipPath>
									<rect x="629.62" y="121.98" class="st56" width="36.22" height="37.27"/>
								</g>
							</g>
						</g>
					</g>
				</g>
				<g>
					<defs>
						<rect id="SVGID_115_" x="416.34" y="130.64" width="265" height="20"/>
					</defs>
					<clipPath id="SVGID_116_">
						<use xlink:href="#SVGID_115_"  style="overflow:visible;"/>
					</clipPath>
					<g class="st57">
						<g>
							<defs>
								<path id="SVGID_117_" d="M679.07,140.98c-0.62-0.37-1.32-0.67-2.09-0.88c-0.78-0.22-1.57-0.41-2.38-0.57
									s-1.6-0.31-2.38-0.45s-1.48-0.31-2.09-0.52c-0.62-0.21-1.11-0.48-1.48-0.81s-0.55-0.76-0.55-1.29
									c0-0.56,0.13-1.04,0.38-1.42c0.26-0.38,0.6-0.68,1.03-0.91s0.91-0.39,1.47-0.48c0.55-0.1,1.11-0.14,1.68-0.14
									c1.41,0,2.56,0.28,3.46,0.83c0.9,0.56,1.43,1.45,1.58,2.7h2.56c-0.04-0.95-0.25-1.77-0.64-2.46s-0.92-1.25-1.59-1.7
									c-0.67-0.45-1.46-0.78-2.35-0.99c-0.89-0.21-1.86-0.31-2.91-0.31c-0.93,0-1.84,0.1-2.72,0.3c-0.88,0.2-1.67,0.51-2.36,0.92
									c-0.7,0.41-1.25,0.94-1.67,1.57c-0.42,0.64-0.63,1.39-0.63,2.26c0,0.79,0.18,1.45,0.56,1.97c0.37,0.52,0.86,0.95,1.48,1.28
									s1.32,0.6,2.09,0.8c0.78,0.2,1.57,0.38,2.38,0.53s1.6,0.3,2.38,0.45c0.78,0.14,1.48,0.33,2.09,0.57
									c0.62,0.23,1.11,0.54,1.48,0.91c0.37,0.37,0.56,0.85,0.56,1.45c0,0.63-0.15,1.14-0.45,1.55c-0.3,0.4-0.7,0.72-1.2,0.96
									c-0.49,0.23-1.05,0.4-1.67,0.49c-0.62,0.1-1.23,0.15-1.84,0.15c-0.76,0-1.5-0.08-2.22-0.24s-1.35-0.41-1.89-0.75
									c-0.54-0.34-0.98-0.77-1.31-1.29c-0.33-0.53-0.5-1.15-0.5-1.87h-2.56c0,1.05,0.22,1.95,0.67,2.72s1.05,1.39,1.82,1.89
									c0.77,0.49,1.66,0.86,2.68,1.1s2.09,0.36,3.23,0.36c0.93,0,1.87-0.09,2.81-0.28c0.94-0.18,1.79-0.48,2.55-0.9
									c0.76-0.41,1.38-0.94,1.87-1.6c0.48-0.65,0.73-1.44,0.73-2.36c0-0.85-0.19-1.56-0.56-2.13
									C680.18,141.82,679.69,141.35,679.07,140.98"/>
							</defs>
							<clipPath id="SVGID_118_">
								<use xlink:href="#SVGID_117_"  style="overflow:visible;"/>
							</clipPath>
							<g class="st58">
								<g>
									<defs>
										<rect id="SVGID_119_" x="3.34" y="-0.36" width="678" height="150"/>
									</defs>
									<clipPath id="SVGID_120_">
										<use xlink:href="#SVGID_119_"  style="overflow:visible;"/>
									</clipPath>
									<rect x="654.76" y="121.57" class="st59" width="36.36" height="38.07"/>
								</g>
							</g>
						</g>
					</g>
				</g>
			</g>
		</g>
	</g>
</g>
</svg>
