<?xml version="1.0" encoding="utf-8"?>
<!-- Generator: Adobe Illustrator 24.1.1, SVG Export Plug-In . SVG Version: 6.00 Build 0)  -->
<svg version="1.1" id="Capa_1" xmlns="http://www.w3.org/2000/svg" xmlns:xlink="http://www.w3.org/1999/xlink" x="0px" y="0px"
	 viewBox="0 0 595.28 168.04" style="enable-background:new 0 0 595.28 168.04;" xml:space="preserve">
<style type="text/css">
	.st0{fill:#FFFFFF;}
</style>
<g>
	<polygon class="st0" points="51.38,38.6 6,38.6 6,3.74 143.92,3.74 143.92,38.6 96.61,38.6 96.61,163.43 51.44,163.43 	"/>
	<path class="st0" d="M103.95,48.88h39.97v70.56c0,0,0.74,10.65,12.22,10.65c11.48,0,12.66-10.65,12.66-10.65V48.88h41.32v114.55
		H168.8v-10.66c0,0-12.72,14.41-33.93,14.41c-18.85,0-26.28-14.41-26.28-14.41s-4.64-8.03-4.64-19.3
		C103.95,122.2,103.95,48.88,103.95,48.88z"/>
	<path class="st0" d="M256.65,48.88h-40.42v114.55h41.3V99.81c0,0,1.65-14.58,23.33-17.25h6.92v-32.7h-7c0,0-18.22,1.75-24.14,16.02
		V48.88z"/>
	<path class="st0" d="M558.86,48.88h-40.42v114.55h41.31V99.81c0,0,1.64-14.58,23.33-17.25H590v-32.7h-7.01
		c0,0-18.22,1.75-24.14,16.02V48.88z"/>
	<path class="st0" d="M333.36,48.88h-40.59v114.55h40.36V96.51c0,0,2.5-11.86,12.45-11.86c9.95,0,12.39,11.98,12.39,11.98v66.8
		h40.11V79.55c0,0-0.5-33.33-29.59-33.33c0,0-19.86-0.73-35.13,15.63V48.88z"/>
	<path class="st0" d="M457.22,46.78c0,0-55.27-0.62-55.27,60.91c0,0-0.67,60.27,55.27,60.27c0,0,48.97,3.93,57.21-43.82h-37.62
		c0,0-5.09,15.75-17.68,15.75c-12.61,0-17.33-18.3-18-22.48h74.46C515.6,117.42,521.47,46.78,457.22,46.78z M441.5,90.94
		c0,0,4.24-17.51,16.85-17.51c14.96,0,18.18,17.51,18.18,17.51H441.5z"/>
</g>
</svg>
