<?xml version="1.0" encoding="utf-8"?>
<!-- Generator: Adobe Illustrator 24.1.1, SVG Export Plug-In . SVG Version: 6.00 Build 0)  -->
<svg version="1.1" id="Capa_1" xmlns="http://www.w3.org/2000/svg" xmlns:xlink="http://www.w3.org/1999/xlink" x="0px" y="0px"
	 viewBox="0 0 48 40" style="enable-background:new 0 0 48 40;" xml:space="preserve">
<style type="text/css">
	.st0{clip-path:url(#SVGID_1_);}
	.st1{clip-path:url(#SVGID_2_);fill:#3D8BCA;}
	.st2{clip-path:url(#SVGID_3_);}
	.st3{clip-path:url(#SVGID_4_);fill:#3D8BCA;}
	.st4{clip-path:url(#SVGID_5_);}
	.st5{clip-path:url(#SVGID_6_);fill:#3D8BCA;}
</style>
<g>
	<defs>
		<path id="SVGID_13_" d="M47.45,29.83c-0.38-0.92-1.47-1.37-2.44-1c-0.96,0.37-1.43,1.41-1.05,2.33c0.49,1.17,0.33,2.51-0.43,3.57
			c-0.76,1.07-1.97,1.68-3.32,1.68H7.79c-1.48,0-2.79-0.74-3.51-1.97c-0.72-1.24-0.69-2.7,0.09-3.91L20.58,5.41
			C21.32,4.27,22.6,3.59,24,3.59c1.4,0,2.68,0.68,3.42,1.83l11.99,18.58c0.54,0.84,1.7,1.1,2.58,0.58c0.88-0.52,1.15-1.63,0.61-2.47
			L30.62,3.53C29.19,1.32,26.72,0,24,0s-5.19,1.32-6.61,3.53L1.18,28.65c-1.5,2.33-1.57,5.15-0.18,7.54C2.39,38.57,4.93,40,7.79,40
			h32.43c2.62,0,4.96-1.19,6.43-3.26C48.1,34.69,48.4,32.1,47.45,29.83z"/>
	</defs>
	<clipPath id="SVGID_1_">
		<use xlink:href="#SVGID_13_"  style="overflow:visible;"/>
	</clipPath>
	<g class="st0">
		<defs>
			<rect id="SVGID_15_" x="-462" y="-842" width="750" height="2588"/>
		</defs>
		<clipPath id="SVGID_2_">
			<use xlink:href="#SVGID_15_"  style="overflow:visible;"/>
		</clipPath>
		<rect x="-10" y="-10" class="st1" width="68" height="60"/>
	</g>
</g>
<g>
	<defs>
		<path id="SVGID_17_" d="M24.77,32.59c0.86,0,1.55-0.66,1.55-1.48s-0.69-1.48-1.55-1.48h0c-0.86,0-1.55,0.66-1.55,1.48
			S23.92,32.59,24.77,32.59z"/>
	</defs>
	<clipPath id="SVGID_3_">
		<use xlink:href="#SVGID_17_"  style="overflow:visible;"/>
	</clipPath>
	<g class="st2">
		<defs>
			<rect id="SVGID_19_" x="-462" y="-842" width="750" height="2588"/>
		</defs>
		<clipPath id="SVGID_4_">
			<use xlink:href="#SVGID_19_"  style="overflow:visible;"/>
		</clipPath>
		<rect x="13.23" y="19.63" class="st3" width="23.1" height="22.96"/>
	</g>
</g>
<g>
	<defs>
		<path id="SVGID_21_" d="M26.32,24.92V12.11c0-0.96-0.69-1.74-1.55-1.74s-1.55,0.78-1.55,1.74v12.81c0,0.96,0.69,1.74,1.55,1.74
			S26.32,25.89,26.32,24.92z"/>
	</defs>
	<clipPath id="SVGID_5_">
		<use xlink:href="#SVGID_21_"  style="overflow:visible;"/>
	</clipPath>
	<g class="st4">
		<defs>
			<rect id="SVGID_23_" x="-462" y="-842" width="750" height="2588"/>
		</defs>
		<clipPath id="SVGID_6_">
			<use xlink:href="#SVGID_23_"  style="overflow:visible;"/>
		</clipPath>
		<rect x="13.23" y="0.37" class="st5" width="23.1" height="36.3"/>
	</g>
</g>
</svg>
